<mxfile host="Electron" agent="Mozilla/5.0 (Windows NT 10.0; Win64; x64) AppleWebKit/537.36 (KHTML, like Gecko) draw.io/27.0.9 Chrome/134.0.6998.205 Electron/35.4.0 Safari/537.36" version="27.0.9">
  <diagram name="Vulnerability Flow" id="flow1">
    <mxGraphModel dx="1428" dy="626" grid="1" gridSize="10" guides="1" tooltips="1" connect="1" arrows="1" fold="1" page="1" pageScale="1" pageWidth="827" pageHeight="1169" math="0" shadow="0">
      <root>
        <mxCell id="0" />
        <mxCell id="1" parent="0" />
        <mxCell id="2" value="Source &amp; Trigger" style="swimlane;html=1;startSize=20;fillColor=#dae8fc;strokeColor=#000000;" parent="1" vertex="1">
          <mxGeometry x="40" y="80" width="320" height="120" as="geometry" />
        </mxCell>
        <mxCell id="3" value="GitHub Repository" style="rounded=1;whiteSpace=wrap;html=1;fillColor=white;strokeColor=#000000;" parent="2" vertex="1">
          <mxGeometry x="10" y="30" width="300" height="50" as="geometry" />
        </mxCell>
        <mxCell id="4" value="Scan &amp; Analyze" style="swimlane;html=1;startSize=20;fillColor=#e1d5e7;strokeColor=#000000;" parent="1" vertex="1">
          <mxGeometry x="400" y="80" width="320" height="280" as="geometry" />
        </mxCell>
        <mxCell id="5" value="Clone &amp; Scan Engine" style="rounded=1;whiteSpace=wrap;html=1;fillColor=white;strokeColor=#000000;" parent="4" vertex="1">
          <mxGeometry x="10" y="30" width="300" height="50" as="geometry" />
        </mxCell>
        <mxCell id="6" value="Run Scanners (SAST, SCA, Secrets, IaC)" style="rounded=1;whiteSpace=wrap;html=1;fillColor=white;strokeColor=#000000;" parent="4" vertex="1">
          <mxGeometry x="10" y="110" width="300" height="50" as="geometry" />
        </mxCell>
        <mxCell id="7" value="Generate Reports (SARIF, JSON, CSV)" style="rounded=1;whiteSpace=wrap;html=1;fillColor=white;strokeColor=#000000;" parent="4" vertex="1">
          <mxGeometry x="10" y="190" width="300" height="50" as="geometry" />
        </mxCell>
        <mxCell id="8" value="Correlation &amp; Fixing" style="swimlane;html=1;startSize=20;fillColor=#d5e8d4;strokeColor=#000000;" parent="1" vertex="1">
          <mxGeometry x="743" y="80" width="320" height="200" as="geometry" />
        </mxCell>
        <mxCell id="9" value="Read CVE Rules / Vuln Fix DB&#xa;(Map Scan Results to Known Vulns)" style="rounded=1;whiteSpace=wrap;html=1;fillColor=white;strokeColor=#000000;" parent="8" vertex="1">
          <mxGeometry x="10" y="30" width="300" height="50" as="geometry" />
        </mxCell>
        <mxCell id="10" value="Apply Fixes (Auto/Partial)" style="rounded=1;whiteSpace=wrap;html=1;fillColor=white;strokeColor=#000000;" parent="8" vertex="1">
          <mxGeometry x="10" y="110" width="300" height="50" as="geometry" />
        </mxCell>
        <mxCell id="11" value="Validation &amp; Delivery" style="swimlane;html=1;startSize=20;fillColor=#fff2cc;strokeColor=#000000;" parent="1" vertex="1">
          <mxGeometry x="1080" y="80" width="320" height="200" as="geometry" />
        </mxCell>
        <mxCell id="12" value="Run CI Validation (Tests)" style="rounded=1;whiteSpace=wrap;html=1;fillColor=white;strokeColor=#000000;" parent="11" vertex="1">
          <mxGeometry x="10" y="30" width="300" height="50" as="geometry" />
        </mxCell>
        <mxCell id="13" value="Commit &amp; Create PR" style="rounded=1;whiteSpace=wrap;html=1;fillColor=white;strokeColor=#000000;" parent="11" vertex="1">
          <mxGeometry x="10" y="110" width="300" height="50" as="geometry" />
        </mxCell>
        <mxCell id="14" value="Communication" style="swimlane;html=1;startSize=20;fillColor=#eeeeee;strokeColor=#000000;" parent="1" vertex="1">
          <mxGeometry x="1420" y="80" width="320" height="120" as="geometry" />
        </mxCell>
        <mxCell id="15" value="Notify / Dashboard Update" style="rounded=1;whiteSpace=wrap;html=1;fillColor=white;strokeColor=#000000;" parent="14" vertex="1">
          <mxGeometry x="10" y="30" width="300" height="50" as="geometry" />
        </mxCell>
        <mxCell id="16" style="endArrow=block;html=1;" parent="1" source="3" target="5" edge="1">
          <mxGeometry relative="1" as="geometry" />
        </mxCell>
        <mxCell id="17" style="endArrow=block;html=1;" parent="1" source="5" target="6" edge="1">
          <mxGeometry relative="1" as="geometry" />
        </mxCell>
        <mxCell id="18" style="endArrow=block;html=1;" parent="1" source="6" target="7" edge="1">
          <mxGeometry relative="1" as="geometry" />
        </mxCell>
        <mxCell id="19" style="endArrow=block;html=1;" parent="1" source="7" target="9" edge="1">
          <mxGeometry relative="1" as="geometry" />
        </mxCell>
        <mxCell id="20" style="endArrow=block;html=1;" parent="1" source="9" target="10" edge="1">
          <mxGeometry relative="1" as="geometry" />
        </mxCell>
        <mxCell id="21" style="endArrow=block;html=1;" parent="1" source="10" target="12" edge="1">
          <mxGeometry relative="1" as="geometry" />
        </mxCell>
        <mxCell id="22" style="endArrow=block;html=1;" parent="1" source="12" target="13" edge="1">
          <mxGeometry relative="1" as="geometry" />
        </mxCell>
        <mxCell id="23" style="endArrow=block;html=1;" parent="1" source="13" target="15" edge="1">
          <mxGeometry relative="1" as="geometry" />
        </mxCell>
      </root>
    </mxGraphModel>
  </diagram>
</mxfile>
